<?xml version="1.0" standalone="no"?>
<!DOCTYPE svg PUBLIC "-//W3C//DTD SVG 20010904//EN"
 "http://www.w3.org/TR/2001/REC-SVG-20010904/DTD/svg10.dtd">
<svg version="1.0" xmlns="http://www.w3.org/2000/svg"
 width="178.000000pt" height="178.000000pt" viewBox="0 0 178.000000 178.000000"
 preserveAspectRatio="xMidYMid meet">
<metadata>
Created by potrace 1.14, written by Peter Selinger 2001-2017
</metadata>
<g transform="translate(0.000000,178.000000) scale(0.100000,-0.100000)"
fill="#000000" stroke="none">
<path d="M625 1354 c-110 -68 -295 -183 -411 -255 l-210 -131 0 -326 1 -327
872 -3 c782 -2 873 0 887 14 14 13 16 47 16 219 0 192 -1 205 -19 215 -11 5
-29 10 -40 10 -16 0 -21 6 -21 25 0 23 4 25 40 25 29 0 40 4 40 15 0 11 -12
15 -44 15 -49 0 -68 -16 -68 -55 0 -21 -5 -25 -29 -25 -52 0 -58 -17 -58 -168
0 -75 0 -155 0 -178 l-1 -41 -82 -1 c-46 0 -87 4 -93 8 -6 5 -9 134 -8 357 1
191 2 349 2 351 1 5 80 -43 238 -144 40 -26 64 -34 98 -34 79 0 59 26 -88 116
-73 45 -264 163 -425 263 -375 231 -322 226 -597 55z m465 -60 c104 -66 199
-123 210 -129 11 -5 21 -14 21 -20 3 -27 5 -741 1 -751 -2 -8 -129 -11 -448
-11 l-444 0 0 383 0 382 78 47 c42 25 140 86 217 135 77 49 148 87 157 85 10
-2 103 -56 208 -121z m-732 -552 l0 -359 -139 0 c-120 0 -139 2 -140 16 0 9
-2 131 -2 271 l-2 255 45 29 c43 28 233 145 236 146 1 0 2 -161 2 -358z"/>
<path d="M669 1187 l-166 -102 -1 -308 c0 -199 4 -309 10 -314 9 -5 228 -8
315 -4 l21 1 0 415 c0 228 -3 415 -6 415 -4 0 -82 -46 -173 -103z"/>
<path d="M912 874 l3 -417 160 1 c88 0 166 1 173 1 9 1 12 71 12 314 l0 312
-166 100 c-92 55 -171 102 -176 103 -4 2 -7 -183 -6 -414z m182 260 l126 -75
-1 -150 0 -149 -134 0 -135 0 0 225 c0 135 4 225 9 225 6 0 66 -34 135 -76z
m119 -423 c4 0 7 -47 5 -103 l-3 -103 -130 0 -130 0 -3 94 c-1 52 -1 99 1 105
3 7 47 11 128 10 68 -1 128 -2 132 -3z"/>
<path d="M212 922 l-72 -45 2 -211 3 -210 68 0 c37 1 70 4 74 8 6 6 8 495 1
500 -1 2 -36 -17 -76 -42z"/>
</g>
</svg>
