<svg width="87" height="106" viewBox="0 0 87 106" fill="none" xmlns="http://www.w3.org/2000/svg">
<path d="M7.92516 16.6559C8.02308 15.8333 8.76932 15.2458 9.59194 15.3437C10.4146 15.4416 11.002 16.1879 10.9041 17.0105L7.92516 16.6559ZM83.8329 79.0178C84.4642 79.5542 84.5411 80.5009 84.0046 81.1321L75.2627 91.4194C74.7262 92.0507 73.7796 92.1276 73.1483 91.5911C72.517 91.0547 72.4401 90.108 72.9766 89.4768L80.7472 80.3325L71.603 72.5619C70.9717 72.0254 70.8948 71.0788 71.4313 70.4475C71.9677 69.8162 72.9143 69.7394 73.5456 70.2758L83.8329 79.0178ZM10.9041 17.0105C8.90073 33.842 10.3408 50.5168 20.3074 62.312C30.2308 74.0561 48.9991 81.4058 82.7402 78.6657L82.983 81.6559C48.8226 84.43 28.8495 77.0696 18.0159 64.2482C7.22532 51.4779 5.89266 33.7319 7.92516 16.6559L10.9041 17.0105Z" fill="#00A3FF"/>
</svg>
