<svg width="72" height="105" viewBox="0 0 72 105" fill="none" xmlns="http://www.w3.org/2000/svg">
<path d="M59.8156 1.65963C59.3518 0.657166 58.1631 0.220514 57.1607 0.684342C56.1582 1.14817 55.7215 2.33684 56.1854 3.3393L59.8156 1.65963ZM3.78768 91.8416C3.22066 92.7895 3.52945 94.0176 4.47737 94.5846L19.9247 103.825C20.8727 104.392 22.1008 104.083 22.6678 103.135C23.2348 102.187 22.926 100.959 21.9781 100.392L8.2471 92.1786L16.4605 78.4476C17.0275 77.4997 16.7187 76.2716 15.7708 75.7045C14.8229 75.1375 13.5948 75.4463 13.0278 76.3942L3.78768 91.8416ZM56.1854 3.3393C63.8671 19.9417 67.9977 37.4841 62.006 52.908C56.0512 68.2372 39.8027 82.1822 5.01636 90.9286L5.99174 94.8079C41.3536 85.9167 59.1032 71.4273 65.7346 54.3565C72.3291 37.3804 67.6339 18.5572 59.8156 1.65963L56.1854 3.3393Z" fill="#00A3FF"/>
</svg>
