<svg width="19" height="15" viewBox="0 0 19 15" fill="none" xmlns="http://www.w3.org/2000/svg">
<path d="M17.3477 8.5C17.8999 8.5 18.3477 8.05228 18.3477 7.5C18.3477 6.94772 17.8999 6.5 17.3477 6.5V8.5ZM0.942875 6.79289C0.552351 7.18342 0.552351 7.81658 0.942875 8.20711L7.30684 14.5711C7.69736 14.9616 8.33053 14.9616 8.72105 14.5711C9.11157 14.1805 9.11157 13.5474 8.72105 13.1569L3.06419 7.5L8.72105 1.84315C9.11157 1.45262 9.11157 0.819457 8.72105 0.428932C8.33053 0.0384078 7.69736 0.0384078 7.30684 0.428932L0.942875 6.79289ZM17.3477 6.5L1.64998 6.5V8.5L17.3477 8.5V6.5Z" fill="#828282"/>
</svg>
