<svg width="52" height="52" viewBox="0 0 52 52" fill="none" xmlns="http://www.w3.org/2000/svg">
<path d="M25.9665 52C21.4858 52 17.8415 48.3557 17.8415 43.875C17.8415 42.978 18.5695 42.25 19.4665 42.25C20.3635 42.25 21.0915 42.978 21.0915 43.875C21.0915 46.564 23.2774 48.75 25.9665 48.75C28.6551 48.75 30.8415 46.564 30.8415 43.875C30.8415 42.978 31.5695 42.25 32.4665 42.25C33.3635 42.25 34.0915 42.978 34.0915 43.875C34.0915 48.3557 30.4471 52 25.9665 52V52Z" fill="black"/>
<path d="M43.8413 45.5H8.09129C6.00013 45.5 4.29935 43.7992 4.29935 41.7085C4.29935 40.5988 4.78257 39.5483 5.62562 38.8266C8.92085 36.0424 10.7994 31.9954 10.7994 27.7075V21.6665C10.7994 13.3035 17.6029 6.5 25.9663 6.5C34.3293 6.5 41.1328 13.3035 41.1328 21.6665V27.7075C41.1328 31.9954 43.0113 36.0424 46.2851 38.8116C47.1496 39.5483 47.6328 40.5988 47.6328 41.7085C47.6328 43.7992 45.932 45.5 43.8413 45.5V45.5ZM25.9663 9.75C19.3945 9.75 14.0494 15.0951 14.0494 21.6665V27.7075C14.0494 32.9527 11.7507 37.9058 7.74454 41.2923C7.66877 41.3574 7.54935 41.4919 7.54935 41.7085C7.54935 42.0028 7.79652 42.25 8.09129 42.25H43.8413C44.1357 42.25 44.3828 42.0028 44.3828 41.7085C44.3828 41.4919 44.2638 41.3574 44.192 41.2967C40.1815 37.9058 37.8828 32.9527 37.8828 27.7075V21.6665C37.8828 15.0951 32.5377 9.75 25.9663 9.75V9.75Z" fill="black"/>
<path d="M25.9665 9.75C25.0695 9.75 24.3415 9.022 24.3415 8.125V1.625C24.3415 0.727997 25.0695 0 25.9665 0C26.8635 0 27.5915 0.727997 27.5915 1.625V8.125C27.5915 9.022 26.8635 9.75 25.9665 9.75Z" fill="black"/>
</svg>
