<svg width="131" height="30" viewBox="0 0 131 30" fill="none" xmlns="http://www.w3.org/2000/svg">
<path d="M130.765 2.14412C131.121 1.72168 131.067 1.09082 130.644 0.735075C130.222 0.379329 129.591 0.433403 129.235 0.855853L130.765 2.14412ZM0.656239 15.0609C0.137633 15.2508 -0.128827 15.8252 0.0610862 16.3438L3.15588 24.795C3.34579 25.3136 3.92016 25.58 4.43876 25.3901C4.95737 25.2002 5.22383 24.6258 5.03392 24.1072L2.28299 16.5951L9.79514 13.8442C10.3137 13.6542 10.5802 13.0799 10.3903 12.5613C10.2004 12.0427 9.62601 11.7762 9.10741 11.9661L0.656239 15.0609ZM129.235 0.855853C117.445 14.8561 97.5869 24.028 74.5645 26.8826C51.5588 29.735 25.4976 26.2624 1.42094 15.0928L0.579267 16.9071C25.0026 28.2375 51.4414 31.7649 74.8106 28.8674C98.1632 25.9719 118.555 16.6439 130.765 2.14412L129.235 0.855853Z" fill="white"/>
</svg>
