<svg width="28" height="23" viewBox="0 0 28 23" fill="none" xmlns="http://www.w3.org/2000/svg">
<g filter="url(#filter0_i_175_52)">
<path fill-rule="evenodd" clip-rule="evenodd" d="M25.2893 0.0588512C25.0075 0.129499 24.7271 0.264023 24.1242 0.61776C22.392 1.63419 20.2776 3.30224 17.7344 5.65865C15.2984 7.91586 12.0043 11.3263 9.41588 14.271C9.26849 14.4387 9.24707 14.4533 9.20187 14.4167C9.01537 14.2657 7.35475 12.7314 5.45525 10.9552C4.23636 9.81539 3.84727 9.52556 3.26378 9.32287C2.12419 8.927 0.790614 9.52226 0.249212 10.6685C0.0628607 11.0629 0.00281303 11.3268 9.52964e-05 11.7632C-0.00242219 12.1683 0.0443515 12.3922 0.210505 12.7704C0.412133 13.2293 0.63287 13.5105 1.43652 14.3322C3.82103 16.7703 6.13148 19.4807 7.33438 21.2511C7.67996 21.7597 7.87418 22.0023 8.15354 22.2743C8.5301 22.641 8.85606 22.8315 9.30525 22.9472C9.50969 22.9999 9.60206 23.007 9.92032 22.9949C10.3465 22.9787 10.5365 22.9341 10.867 22.7725C11.1545 22.632 11.3977 22.4452 11.6385 22.1798C11.9201 21.8694 12.0876 21.6297 12.5832 20.8278C13.511 19.3268 14.6956 17.5555 15.7771 16.052C19.2369 11.2425 22.7532 7.41043 26.0825 4.82115C26.7134 4.33052 27.2425 3.87998 27.4207 3.68158C27.6441 3.43297 27.8362 3.11386 27.9225 2.84843C27.9909 2.63806 27.9997 2.56625 28 2.21695C28.0004 1.76206 27.9609 1.5737 27.7886 1.20977C27.5129 0.627306 27.0006 0.214861 26.3581 0.0580046C26.04 -0.01965 25.601 -0.0192997 25.2893 0.0588512Z" fill="#43FF00"/>
</g>
<defs>
<filter id="filter0_i_175_52" x="0" y="-2" width="28" height="25" filterUnits="userSpaceOnUse" color-interpolation-filters="sRGB">
<feFlood flood-opacity="0" result="BackgroundImageFix"/>
<feBlend mode="normal" in="SourceGraphic" in2="BackgroundImageFix" result="shape"/>
<feColorMatrix in="SourceAlpha" type="matrix" values="0 0 0 0 0 0 0 0 0 0 0 0 0 0 0 0 0 0 127 0" result="hardAlpha"/>
<feOffset dy="-2"/>
<feGaussianBlur stdDeviation="1"/>
<feComposite in2="hardAlpha" operator="arithmetic" k2="-1" k3="1"/>
<feColorMatrix type="matrix" values="0 0 0 0 0 0 0 0 0 0 0 0 0 0 0 0 0 0 0.5 0"/>
<feBlend mode="normal" in2="shape" result="effect1_innerShadow_175_52"/>
</filter>
</defs>
</svg>
