<svg width="10" height="11" viewBox="0 0 10 11" fill="none" xmlns="http://www.w3.org/2000/svg">
<path fill-rule="evenodd" clip-rule="evenodd" d="M4.81612 0.0242189C4.63851 0.0896559 4.4969 0.247939 4.45889 0.423527C4.44282 0.497842 4.4352 1.12448 4.4352 2.37453V4.21608L3.75723 3.54804C2.99777 2.79968 2.99037 2.79435 2.73654 2.81456C2.57447 2.82743 2.48811 2.86778 2.37479 2.98346C2.21835 3.1432 2.18075 3.37589 2.27795 3.5828C2.32507 3.68308 2.52774 3.89139 3.65854 5.0016C4.38749 5.71728 4.99081 6.30284 4.99923 6.30284C5.00767 6.30284 5.61494 5.71275 6.34875 4.99152C7.27882 4.0774 7.69496 3.65415 7.72262 3.59421C7.9297 3.14531 7.50411 2.68734 7.02621 2.8448C6.93183 2.87589 6.83984 2.95831 6.24188 3.5475L5.5645 4.21496L5.55849 2.3138C5.55187 0.211028 5.56137 0.348631 5.41083 0.178718C5.37169 0.134542 5.29997 0.0783485 5.25146 0.0538204C5.13797 -0.00353375 4.92987 -0.0177003 4.81612 0.0242189ZM1.50024 3.87232C1.37482 3.91665 1.28023 3.98956 1.20766 4.09782C1.1611 4.16728 0.975977 4.69118 0.576657 5.88365L0.0115418 7.57117L0.00577071 9.06652L0 10.5619L0.0643693 10.6895C0.135594 10.8309 0.261882 10.9408 0.395025 10.9775C0.449501 10.9925 1.95061 10.9998 5.00084 10.9998C9.97896 11 9.62832 11.0094 9.79915 10.8699C9.84247 10.8345 9.90539 10.7502 9.93895 10.6824L10 10.5593L9.99347 9.06521L9.98696 7.57117L9.41215 5.85964C9.04131 4.7554 8.81824 4.12246 8.78351 4.07581C8.67341 3.92793 8.46943 3.8327 8.29051 3.84562C8.20794 3.8516 8.19514 3.86078 8.14672 3.94891C8.115 4.00661 7.91137 4.22283 7.64202 4.48477C7.39368 4.72629 7.19048 4.92997 7.19048 4.93739C7.19048 4.94481 7.35335 4.95259 7.5524 4.9547C7.75145 4.95678 7.92109 4.96592 7.92935 4.97501C7.94482 4.99199 8.83931 7.64438 8.83931 7.67328C8.83931 7.68215 7.11129 7.6894 4.99927 7.6894C2.88725 7.6894 1.15924 7.68215 1.15924 7.67328C1.15924 7.66442 1.36428 7.04767 1.61486 6.30275L2.07047 4.94838L2.43927 4.95347C2.64212 4.95626 2.80807 4.95154 2.80807 4.94296C2.80807 4.93438 2.60884 4.73379 2.36535 4.49724C2.10644 4.2457 1.89401 4.02028 1.85368 3.95429C1.78605 3.84369 1.78265 3.84145 1.68348 3.84237C1.62783 3.84289 1.54537 3.85637 1.50024 3.87232Z" fill="#7C7C7E"/>
</svg>
