<svg width="86" height="85" viewBox="0 0 86 85" fill="none" xmlns="http://www.w3.org/2000/svg">
<circle cx="43.0559" cy="42.2102" r="42.2102" fill="#00A3FF"/>
<path fill-rule="evenodd" clip-rule="evenodd" d="M42.3394 18.4995C41.6474 18.7699 41.0956 19.424 40.9475 20.1496C40.8849 20.4567 40.8552 23.0463 40.8552 28.2121V35.8222L38.2136 33.0616C35.2545 29.969 35.2257 29.947 34.2367 30.0305C33.6052 30.0837 33.2687 30.2504 32.8272 30.7285C32.2176 31.3886 32.0711 32.3502 32.4498 33.2052C32.6334 33.6196 33.4231 34.4805 37.8291 39.0684C40.6693 42.0259 43.0201 44.4457 43.0529 44.4457C43.0857 44.4457 45.4519 42.0072 48.311 39.0267C51.9349 35.2491 53.5563 33.5001 53.6641 33.2524C54.4709 31.3973 52.8127 29.5048 50.9506 30.1555C50.5829 30.2839 50.2245 30.6245 47.8946 33.0593L45.2553 35.8176L45.2319 27.9611C45.2061 19.2715 45.2432 19.8401 44.6566 19.138C44.5041 18.9554 44.2246 18.7232 44.0356 18.6218C43.5934 18.3848 42.7826 18.3263 42.3394 18.4995ZM29.4196 34.4017C28.931 34.5848 28.5624 34.8862 28.2797 35.3335C28.0983 35.6206 27.3769 37.7856 25.8211 42.7134L23.6192 49.687L23.5967 55.8665L23.5742 62.0461L23.825 62.5736C24.1025 63.1577 24.5946 63.612 25.1134 63.7634C25.3256 63.8254 31.1744 63.8555 43.0591 63.8558C62.4555 63.8564 61.0893 63.8956 61.7549 63.3191C61.9237 63.1728 62.1689 62.8242 62.2996 62.5442L62.5375 62.0352L62.5121 55.8611L62.4867 49.687L60.247 42.6142C58.8021 38.0509 57.933 35.4353 57.7977 35.2426C57.3687 34.6315 56.5739 34.2379 55.8768 34.2913C55.555 34.316 55.5052 34.354 55.3165 34.7182C55.1929 34.9566 54.3995 35.8501 53.35 36.9326C52.3824 37.9307 51.5907 38.7724 51.5907 38.803C51.5907 38.8337 52.2253 38.8658 53.0008 38.8745C53.7764 38.8832 54.4374 38.9209 54.4696 38.9585C54.5298 39.0287 58.0151 49.9896 58.0151 50.109C58.0151 50.1457 51.2822 50.1756 43.053 50.1756C34.8239 50.1756 28.091 50.1457 28.091 50.109C28.091 50.0724 28.8899 47.5237 29.8662 44.4454L31.6415 38.8484L33.0784 38.8695C33.8688 38.881 34.5154 38.8615 34.5154 38.826C34.5154 38.7906 33.7391 37.9617 32.7904 36.9841C31.7816 35.9446 30.9539 35.0131 30.7967 34.7404C30.5333 34.2833 30.52 34.2741 30.1336 34.2779C29.9168 34.28 29.5955 34.3357 29.4196 34.4017Z" fill="white"/>
</svg>
