<svg width="28" height="46" viewBox="0 0 28 46" fill="none" xmlns="http://www.w3.org/2000/svg">
<path fill-rule="evenodd" clip-rule="evenodd" d="M12.5167 0.0539803C7.25717 0.77492 3.14509 4.77756 2.3346 9.96513C2.17454 10.9895 2.27389 13.2938 2.51999 14.2638C2.9555 15.9804 3.57367 17.2712 4.61012 18.6274C8.08407 23.1734 14.262 24.5579 19.3951 21.9408C22.5644 20.3249 24.7672 17.5078 25.5388 14.0838C25.7688 13.0627 25.8199 10.9849 25.6421 9.87695C24.8591 4.99664 21.1368 1.15559 16.2415 0.176071C15.422 0.0120537 13.324 -0.0566844 12.5167 0.0539803ZM15.8125 6.21728C17.5723 6.80048 18.9366 8.15022 19.4895 9.85518C19.7285 10.5922 19.8136 11.9923 19.6659 12.7554C19.6058 13.0654 19.3711 13.6991 19.1442 14.1637C17.7633 16.9916 14.2891 18.1251 11.4001 16.6901C10.0696 16.0293 9.05425 14.9004 8.56843 13.5419C8.25023 12.652 8.17103 11.1719 8.39516 10.3033C8.98416 8.02067 10.7349 6.40469 13.0753 5.98345C13.7966 5.85362 15.0338 5.95933 15.8125 6.21728ZM2.02232 23.2746C1.16416 23.5924 0.441894 24.3925 0.141012 25.3587C-0.0812995 26.0727 -0.0472101 26.4901 0.289402 27.1747C0.804665 28.2224 2.98521 29.8626 5.08437 30.7815C6.71338 31.4946 9.22689 32.1464 10.9777 32.3096C11.3412 32.3435 11.6385 32.3898 11.6385 32.4127C11.6385 32.4355 9.63897 34.4542 7.19501 36.8988C3.72288 40.3721 2.69172 41.4555 2.47806 41.8554C1.52957 43.6303 3.08192 45.97 5.21252 45.9767C6.31998 45.9801 6.34623 45.9599 10.2602 42.0978C12.184 40.1993 13.8247 38.6412 13.9061 38.6354C13.9874 38.6294 14.1155 38.6324 14.1907 38.6418C14.2659 38.6513 15.9065 40.213 17.8366 42.1123C21.5264 45.7434 21.6504 45.8442 22.5903 45.9801C23.7006 46.1407 25.0779 45.3121 25.648 44.1407C25.8416 43.7431 25.8919 43.509 25.891 43.0096C25.8892 41.8868 25.9633 41.977 20.9659 37.0192C18.4928 34.5658 16.4694 32.511 16.4694 32.4532C16.4694 32.3953 16.5668 32.348 16.6859 32.348C17.0223 32.348 19.0768 31.9949 19.8875 31.7976C22.2308 31.2277 24.0814 30.3858 25.8121 29.1023C26.8105 28.3618 27.5049 27.6684 27.7831 27.1341C28.3783 25.9909 27.6934 24.1869 26.4005 23.4923C25.7949 23.167 24.998 23.0909 24.298 23.2918C24.0238 23.3706 23.3295 23.7265 22.755 24.0829C20.765 25.3173 18.9246 26.0497 16.9078 26.41C12.9417 27.1184 9.00312 26.3593 5.48597 24.2086C4.93452 23.8714 4.29876 23.5164 4.07316 23.4198C3.58525 23.2108 2.41781 23.1281 2.02232 23.2746Z" fill="white"/>
</svg>
