<svg width="47" height="11" viewBox="0 0 47 11" fill="none" xmlns="http://www.w3.org/2000/svg">
<path fill-rule="evenodd" clip-rule="evenodd" d="M19.8326 0.170747L18.6704 0.323564V1.48994V2.65639H18.1907H17.7111V3.76323V4.87006H18.1907H18.6704V7.8954V10.9207H19.9248H21.1793V7.8954V4.87006H22.1037H23.028L23.0077 3.78167L22.9872 2.69329L22.0833 2.67255L21.1793 2.65182V1.32591C21.1793 0.309618 21.1578 0.00206609 21.0871 0.00892844C21.0364 0.0138723 20.4719 0.0867018 19.8326 0.170747ZM32.9123 0.151857C32.4049 0.227269 31.965 0.290285 31.9345 0.292056C31.904 0.293753 31.8792 2.68591 31.8792 5.60794V10.9207L33.9269 10.9196C36.1502 10.9184 36.5714 10.8669 37.2772 10.5092C37.7448 10.2723 38.3248 9.73768 38.5721 9.31575C38.9522 8.66723 39.037 8.21453 39.037 6.83439C39.037 5.06892 38.8697 4.50311 38.1077 3.69054C37.4031 2.9393 36.6236 2.65639 35.2581 2.65639H34.3881V1.3282V0L34.1114 0.00745267C33.9592 0.0115111 33.4196 0.0765189 32.9123 0.151857ZM0.0188908 5.66329L0.0378554 10.8838L1.27387 10.9041L2.50989 10.9243V9.15158V7.37887L3.8197 7.37917L5.12951 7.37947L5.93569 9.09476C6.37904 10.0381 6.76327 10.8357 6.78954 10.867C6.81581 10.8983 7.48732 10.9149 8.28169 10.9039L9.7261 10.8838L8.59435 8.78396L7.46253 6.68408L7.77703 6.34782C8.41718 5.66351 8.70843 4.90924 8.70843 3.93582C8.70843 2.50948 8.10046 1.42302 6.97432 0.836838C6.26621 0.468263 6.00085 0.442732 2.87472 0.442732H0L0.0188908 5.66329ZM42.3953 2.66931C41.1796 2.90115 40.1283 3.9063 39.8532 5.09991C39.7265 5.64934 39.7552 8.09706 39.8937 8.56451C40.1355 9.37995 40.6184 10.0274 41.3134 10.4683C42.3507 11.1262 44.027 11.1793 45.3338 10.5957C45.8072 10.3842 46.556 9.82409 46.8095 9.49181L47 9.24204L46.1628 8.68442L45.3256 8.12687L45.1555 8.30787C45.062 8.40742 44.801 8.57949 44.5755 8.69025C44.2267 8.86151 44.072 8.89154 43.5383 8.89154C43.043 8.89154 42.8568 8.86011 42.6528 8.74227C42.3413 8.56222 42.0625 8.05035 42.0625 7.65839V7.37887H44.4976H46.9328L46.9319 6.43807C46.9306 5.0732 46.7127 4.39774 46.0327 3.65173C45.2426 2.78479 43.8137 2.39887 42.3953 2.66931ZM5.24345 2.72989C5.54017 2.81231 5.9309 3.18236 6.04742 3.49131C6.27654 4.09911 6.04107 4.70757 5.46379 4.99919C5.1597 5.15282 5.0372 5.16521 3.82251 5.16521H2.50989V3.9108V2.65639L3.74591 2.65684C4.42576 2.65706 5.09963 2.68989 5.24345 2.72989ZM9.75613 5.62462C9.77783 8.5178 9.78292 8.60893 9.9494 9.06989C10.268 9.95211 10.7438 10.4535 11.5828 10.7906C11.9497 10.9381 12.1224 10.9553 13.2467 10.9564C14.396 10.9576 14.5444 10.9423 15.0177 10.7745C15.4313 10.6279 15.6237 10.5029 15.9835 10.1473C16.8118 9.32837 16.9132 8.76706 16.8831 5.16521L16.8625 2.69329L15.6291 2.67307L14.3957 2.65285L14.3746 5.32947C14.3572 7.53383 14.334 8.04393 14.2428 8.2208C13.9069 8.87243 12.8694 8.96954 12.4546 8.38816C12.2898 8.15705 12.2868 8.11374 12.2505 5.42347L12.2136 2.69329L10.9737 2.67307L9.73378 2.65278L9.75613 5.62462ZM23.7375 2.70561C23.6626 2.78036 23.6832 7.71063 23.7608 8.30736C23.9505 9.76705 24.7469 10.6572 26.1003 10.9224C26.7069 11.0413 28.3949 10.9801 28.8939 10.8212C29.7168 10.5591 30.3183 9.96982 30.6375 9.11291C30.7964 8.68634 30.8034 8.56038 30.8287 5.66152L30.8551 2.65278L29.6146 2.67307L28.374 2.69329L28.3371 5.42347C28.3037 7.89886 28.2878 8.17203 28.1668 8.35023C27.7782 8.92261 26.8192 8.90328 26.3869 8.31437C26.2398 8.11403 26.2333 8.00305 26.2122 5.38127L26.1904 2.65639H24.9885C24.3275 2.65639 23.7645 2.67853 23.7375 2.70561ZM44.1094 4.47536C44.3773 4.67496 44.5616 4.99904 44.5874 5.31545L44.6083 5.57105L43.3354 5.59127C42.0936 5.61097 42.0625 5.60772 42.0625 5.4597C42.0625 5.26099 42.2562 4.80217 42.4158 4.62287C42.635 4.37671 42.9563 4.27613 43.4453 4.30056C43.7678 4.31664 43.9667 4.36903 44.1094 4.47536ZM35.987 5.04184C36.5386 5.32711 36.7055 5.80651 36.6611 6.97887C36.6242 7.95516 36.5112 8.21461 36.0126 8.46726C35.7468 8.602 35.5629 8.63328 35.0366 8.63328H34.3881V6.74163V4.84991L35.0711 4.8857C35.4945 4.90784 35.8425 4.96716 35.987 5.04184Z" fill="white"/>
</svg>
