<svg width="41" height="34" viewBox="0 0 41 34" fill="none" xmlns="http://www.w3.org/2000/svg">
<path fill-rule="evenodd" clip-rule="evenodd" d="M38.5179 0.103548C38.3415 0.160332 34.4255 1.64589 29.8158 3.40467C25.2061 5.16345 17.0313 8.28049 11.6496 10.3313C6.26792 12.3822 1.63333 14.1693 1.35053 14.3028C0.444308 14.7303 -0.124338 15.415 0.0232375 15.9012C0.105366 16.1718 0.456259 16.5136 0.862171 16.7185C1.20023 16.8891 10.4658 19.7961 10.7273 19.8136C10.7934 19.818 15.736 16.7742 21.7107 13.0497C27.6854 9.32512 32.692 6.22852 32.8364 6.16847C33.1814 6.02495 33.7006 6.02846 33.8228 6.17518C34.0409 6.43681 34.9933 5.55495 20.7528 18.2767C18.6133 20.1881 16.6922 21.9137 16.4836 22.1116L16.1043 22.4714L15.7818 27.0386C15.6045 29.5505 15.4593 31.6815 15.4593 31.7742C15.4593 31.9249 15.4909 31.937 15.7601 31.8899C16.437 31.7713 16.7235 31.5589 18.563 29.8113C19.5689 28.8558 20.7211 27.7531 21.1235 27.3609L21.8552 26.6478L26.6485 30.144C30.5043 32.9564 31.5425 33.6766 31.9559 33.8261C33.3803 34.341 34.2808 33.7153 34.7069 31.9148C34.7925 31.5527 36.2401 24.8414 37.9238 17.0007C41.2661 1.43537 41.1955 1.82375 40.8288 1.02774C40.7377 0.830077 40.5813 0.583375 40.4812 0.479551C40.0517 0.0339064 39.2254 -0.124305 38.5179 0.103548Z" fill="white"/>
</svg>
