<svg width="41" height="23" viewBox="0 0 41 23" fill="none" xmlns="http://www.w3.org/2000/svg">
<path fill-rule="evenodd" clip-rule="evenodd" d="M17.425 0.0438991C16.5489 0.0886917 15.5524 0.212433 15.1661 0.324473C14.7054 0.458142 14.3096 0.67915 13.9787 0.987616C13.7057 1.24219 13.5158 1.50338 13.5566 1.56815C13.5975 1.63291 13.9226 1.76906 14.2791 1.87059C14.728 1.99858 15.0419 2.18331 15.3001 2.47145C15.5052 2.70037 15.7005 3.00636 15.734 3.15137C15.7676 3.2965 15.8498 3.65449 15.9164 3.947C15.9832 4.23951 16.0709 5.14364 16.1114 5.95617C16.1644 7.01854 16.1308 7.80531 15.9924 8.7573C15.8865 9.48533 15.7102 10.3005 15.6007 10.5687C15.4751 10.8765 15.2901 11.0981 15.0996 11.1691C14.9017 11.2429 14.6629 11.238 14.4067 11.1552C14.1917 11.0857 13.7209 10.7251 13.3606 10.3539C13.0003 9.98277 12.4972 9.35993 12.2426 8.96992C11.9882 8.5799 11.1779 7.08756 10.4421 5.65373C9.70639 4.21977 8.97406 2.74056 8.81476 2.36638C8.62917 1.93062 8.37232 1.57193 8.10039 1.36877L7.6758 1.05144H4.14896H0.622235L0.311118 1.33792C0.112026 1.52135 0 1.75098 0 1.97577C0 2.16901 0.305209 2.99737 0.678188 3.81664C1.05117 4.63591 1.83379 6.21712 2.41743 7.33055C3.00108 8.44399 3.88873 10.0259 4.39001 10.846C4.89118 11.666 5.57938 12.7494 5.91907 13.2536C6.25889 13.7576 6.81516 14.5424 7.15522 14.9974C7.49528 15.4524 8.1596 16.3035 8.63159 16.8886C9.10345 17.4739 9.93129 18.3598 10.4712 18.8575C11.0109 19.3553 12.0059 20.1211 12.682 20.5595C13.3582 20.9978 14.4035 21.5802 15.005 21.8533C15.6064 22.1265 16.614 22.4766 17.2441 22.6312C18.2421 22.8761 18.6771 22.9125 20.6206 22.914C22.5283 22.9157 22.9079 22.8856 23.2413 22.7071C23.4557 22.5922 23.706 22.3529 23.7974 22.1752C23.8888 21.9976 23.9977 21.3985 24.0393 20.8439C24.081 20.2893 24.2027 19.5462 24.3099 19.1926C24.4383 18.7686 24.6599 18.3974 24.9602 18.1031C25.2759 17.7937 25.5219 17.6567 25.7615 17.6571C25.9518 17.6573 26.2701 17.7551 26.4691 17.8743C26.6681 17.9936 27.2379 18.5119 27.7353 19.0261C28.2327 19.5405 29.1552 20.4722 29.7853 21.0967C30.4154 21.721 31.1599 22.3462 31.4398 22.4858C31.7195 22.6255 32.235 22.8076 32.5854 22.8906C33.0611 23.0034 34.0601 23.0245 36.5382 22.9744C38.9678 22.9253 39.935 22.8651 40.1559 22.7491C40.3217 22.6621 40.5794 22.4819 40.7287 22.3487C40.9273 22.1714 41 21.9742 41 21.6129C41 21.3105 40.8794 20.8949 40.6886 20.5402C40.5175 20.2218 40.0698 19.5652 39.6938 19.081C39.3179 18.5969 38.0473 17.2682 36.8703 16.1286C35.6934 14.9888 34.6487 13.8878 34.549 13.6816C34.4493 13.4756 34.3676 13.1502 34.3676 12.9585C34.3676 12.7666 34.501 12.364 34.6639 12.0637C34.827 11.7632 35.7688 10.4656 36.7569 9.18005C37.7451 7.89442 38.8938 6.33732 39.3097 5.71979C39.7256 5.10227 40.278 4.17155 40.5372 3.65153C40.9234 2.87682 41.0023 2.60145 40.9742 2.12705C40.9457 1.64946 40.88 1.50468 40.5983 1.29975C40.2644 1.05687 40.1667 1.05226 36.1366 1.09127C32.7834 1.12377 31.9648 1.16324 31.7406 1.30365C31.5889 1.39843 31.3608 1.69957 31.2333 1.97282C31.106 2.24606 30.7804 2.97492 30.5098 3.59244C30.2392 4.20996 29.686 5.30023 29.2808 6.01526C28.8753 6.73029 28.1888 7.84526 27.7549 8.49303C27.3212 9.14081 26.6201 10.0051 26.1971 10.4136C25.6277 10.9635 25.3416 11.1564 25.0953 11.1564C24.9052 11.1564 24.6549 11.0424 24.5112 10.8904C24.3729 10.7441 24.1937 10.3852 24.1129 10.0927C24.0036 9.69712 23.9858 8.57683 24.0436 5.71979L24.1213 1.87874L23.8214 1.25365C23.5893 0.770035 23.4227 0.588029 23.0854 0.44987C22.8456 0.351657 22.3692 0.225079 22.0269 0.168468C21.6845 0.111856 20.8618 0.0427171 20.1985 0.0147069C19.5353 -0.0133032 18.2872 -6.61612e-05 17.425 0.0438991Z" fill="white"/>
</svg>
