<svg width="36" height="30" viewBox="0 0 36 30" fill="none" xmlns="http://www.w3.org/2000/svg">
<circle cx="21" cy="15" r="15" fill="#202022"/>
<circle cx="5.5" cy="15.5" r="2.5" fill="#33FF00"/>
<circle cx="5.5" cy="15.5" r="4" stroke="#33FF00" stroke-opacity="0.3" stroke-width="3"/>
<path d="M25.1976 16.5639C24.5853 16.5639 23.9842 16.4681 23.4145 16.2798C23.1354 16.1846 22.7922 16.272 22.6219 16.447L21.4975 17.2958C20.1935 16.5997 19.3903 15.7967 18.7037 14.5025L19.5275 13.4074C19.7416 13.1937 19.8183 12.8814 19.7264 12.5885C19.5373 12.0158 19.4413 11.4149 19.4413 10.8024C19.4413 10.36 19.0813 10 18.6389 10H16.8024C16.36 10 16 10.36 16 10.8024C16 15.874 20.126 20 25.1976 20C25.64 20 26 19.64 26 19.1976V17.3663C26 16.9238 25.64 16.5639 25.1976 16.5639Z" fill="white"/>
</svg>
