<svg width="32" height="44" viewBox="0 0 32 44" fill="none" xmlns="http://www.w3.org/2000/svg">
<path d="M3.36914 16.3278C3.36914 23.4357 9.03565 29.2182 16.0009 29.2182C22.9661 29.2182 28.6326 23.4357 28.6326 16.3278C28.6326 9.22003 22.9661 3.4375 16.0009 3.4375C9.03565 3.4375 3.36914 9.22003 3.36914 16.3278ZM16.0009 5.15621C22.0374 5.15621 26.9483 10.1677 26.9483 16.3278C26.9483 22.488 22.0374 27.4995 16.0009 27.4995C9.96428 27.4995 5.05337 22.488 5.05337 16.3278C5.05337 10.1677 9.96428 5.15621 16.0009 5.15621Z" fill="#00A3FF"/>
<path d="M8.1984 14.7962L11.4626 18.0782L10.7116 22.6909C10.6593 23.0121 10.7892 23.3357 11.0474 23.5271C11.3053 23.7184 11.6471 23.7443 11.9303 23.5946L15.9972 21.4395L20.0637 23.5946C20.3446 23.7433 20.6864 23.7201 20.9466 23.5271C21.2048 23.3357 21.3347 23.0121 21.2824 22.6909L20.5314 18.0782L23.7956 14.7962C24.0229 14.568 24.1042 14.2283 24.0055 13.9184C23.9068 13.6089 23.6453 13.383 23.3298 13.3343L18.7998 12.6384L16.7501 8.45546C16.6077 8.16442 16.3159 7.98047 15.9972 7.98047C15.6781 7.98047 15.3866 8.16442 15.2439 8.45546L13.1942 12.6384L8.66419 13.3343C8.34873 13.3827 8.08721 13.6089 7.98853 13.9184C7.88984 14.2283 7.97142 14.568 8.1984 14.7962ZM13.8774 14.2716C14.1485 14.2299 14.3827 14.0564 14.5054 13.8063L15.9972 10.7613L17.489 13.8063C17.6117 14.0564 17.8459 14.2299 18.1169 14.2716L21.414 14.7781L19.038 17.1665C18.8429 17.3629 18.7534 17.6439 18.7982 17.9198L19.3449 21.277L16.385 19.7087C16.2636 19.6442 16.1304 19.612 15.9972 19.612C15.8639 19.612 15.7307 19.6442 15.609 19.7087L12.6491 21.277L13.1958 17.9198C13.2409 17.6439 13.1514 17.3629 12.956 17.1665L10.5803 14.7781L13.8774 14.2716Z" fill="#00A3FF"/>
<path d="M16.8429 0.859356C16.8429 1.33402 16.4659 1.71871 16.0008 1.71871C15.5357 1.71871 15.1587 1.33402 15.1587 0.859356C15.1587 0.384696 15.5357 0 16.0008 0C16.4659 0 16.8429 0.384696 16.8429 0.859356Z" fill="#00A3FF"/>
<path d="M12.0314 0.507417C4.94742 2.35268 0 8.85861 0 16.3286C0 20.9681 1.91153 25.3398 5.26716 28.4358L0.193752 37.5601C0.0305924 37.8538 0.0509874 38.2177 0.245726 38.4903C0.440465 38.7632 0.773363 38.8944 1.09738 38.8256L6.85895 37.6047L8.88397 43.4279C8.99384 43.7448 9.2751 43.9667 9.60339 43.9965C9.93168 44.0264 10.2465 43.8576 10.4093 43.5652L16.0002 33.5349L21.5907 43.5652C21.7413 43.8354 22.0216 43.9996 22.3223 43.9996C22.3469 43.9996 22.3719 43.9986 22.3966 43.9965C22.7249 43.9667 23.0062 43.7444 23.1164 43.4279L25.141 37.6047L30.9026 38.8256C31.2263 38.8941 31.5595 38.7629 31.7543 38.4903C31.9493 38.2177 31.9694 37.8538 31.8062 37.5601L26.7328 28.4358C30.0885 25.3398 32 20.9681 32 16.3286C32 8.85861 27.0526 2.35268 19.969 0.507417C19.518 0.389927 19.0597 0.667539 18.9446 1.12743C18.8295 1.58732 19.1015 2.05527 19.5522 2.17276C25.8897 3.82366 30.3161 9.64479 30.3161 16.3286C30.3161 24.4633 23.842 30.9377 16.0002 30.9377C8.15272 30.9377 1.68423 24.4579 1.68423 16.3286C1.68423 9.64479 6.11026 3.82366 12.4478 2.17276C12.8985 2.05527 13.1705 1.58732 13.0557 1.12743C12.9406 0.667539 12.4824 0.389927 12.0314 0.507417ZM9.85569 41.0828L8.20074 36.3238C8.05995 35.9189 7.64811 35.6823 7.23593 35.7695L2.577 36.7568L6.59217 29.5355C8.93332 31.2724 11.7054 32.3304 14.588 32.5923L9.85569 41.0828ZM24.7641 35.7695C24.3522 35.6823 23.9401 35.9189 23.7993 36.3238L22.1446 41.0828L17.412 32.5923C20.2949 32.3304 23.0667 31.2724 25.4082 29.5355L29.4233 36.7568L24.7641 35.7695Z" fill="#00A3FF"/>
</svg>
