<svg width="24" height="34" viewBox="0 0 24 34" fill="none" xmlns="http://www.w3.org/2000/svg">
<path d="M3.19775 12.9697C3.19775 18.2657 7.27943 22.5742 12.2966 22.5742C17.3137 22.5742 21.3954 18.2657 21.3954 12.9697C21.3954 7.67375 17.3137 3.36523 12.2966 3.36523C7.27943 3.36523 3.19775 7.67375 3.19775 12.9697ZM12.2966 4.64583C16.6448 4.64583 20.1822 8.37983 20.1822 12.9697C20.1822 17.5596 16.6448 21.2936 12.2966 21.2936C7.94834 21.2936 4.41093 17.5596 4.41093 12.9697C4.41093 8.37983 7.94834 4.64583 12.2966 4.64583Z" fill="white"/>
<path d="M6.67894 11.8284L9.03018 14.2738L8.48923 17.7106C8.45155 17.95 8.54515 18.1911 8.73115 18.3337C8.91692 18.4762 9.16311 18.4955 9.36712 18.3839L12.2965 16.7782L15.2257 18.3839C15.428 18.4947 15.6742 18.4775 15.8616 18.3337C16.0476 18.1911 16.1412 17.95 16.1036 17.7106L15.5626 14.2738L17.9139 11.8284C18.0776 11.6583 18.1361 11.4052 18.065 11.1743C17.9939 10.9437 17.8056 10.7754 17.5783 10.7391L14.3153 10.2206L12.8389 7.10392C12.7363 6.88706 12.5261 6.75 12.2965 6.75C12.0667 6.75 11.8567 6.88706 11.7539 7.10392L10.2775 10.2206L7.01446 10.7391C6.78723 10.7751 6.59885 10.9437 6.52777 11.1743C6.45669 11.4052 6.51545 11.6583 6.67894 11.8284ZM10.7696 11.4374C10.9649 11.4064 11.1336 11.2771 11.222 11.0908L12.2965 8.82197L13.3711 11.0908C13.4595 11.2771 13.6282 11.4064 13.8234 11.4374L16.1983 11.8149L14.4869 13.5944C14.3464 13.7408 14.2819 13.9501 14.3141 14.1557L14.7079 16.6571L12.5759 15.4886C12.4884 15.4406 12.3925 15.4165 12.2965 15.4165C12.2006 15.4165 12.1046 15.4406 12.0169 15.4886L9.88486 16.6571L10.2787 14.1557C10.3111 13.9501 10.2467 13.7408 10.1059 13.5944L8.39469 11.8149L10.7696 11.4374Z" fill="white"/>
<path d="M12.9023 1.44499C12.9023 1.79865 12.6306 2.08529 12.2954 2.08529C11.9602 2.08529 11.6885 1.79865 11.6885 1.44499C11.6885 1.09132 11.9602 0.804688 12.2954 0.804688C12.6306 0.804688 12.9023 1.09132 12.9023 1.44499Z" fill="white"/>
<path d="M9.43641 0.824766C4.33372 2.19961 0.77002 7.04695 0.77002 12.6126C0.77002 16.0693 2.14693 19.3265 4.56404 21.6332L0.909582 28.4314C0.792056 28.6503 0.806747 28.9214 0.94702 29.1245C1.08729 29.3278 1.32709 29.4256 1.56048 29.3743L5.71063 28.4647L7.16928 32.8033C7.24843 33.0394 7.45102 33.2047 7.68749 33.227C7.92396 33.2493 8.15072 33.1235 8.26801 32.9056L12.2952 25.4324L16.3221 32.9056C16.4306 33.1069 16.6325 33.2293 16.8491 33.2293C16.8669 33.2293 16.8849 33.2285 16.9026 33.227C17.1391 33.2047 17.3417 33.0392 17.4211 32.8033L18.8795 28.4647L23.0297 29.3743C23.2628 29.4254 23.5028 29.3276 23.6431 29.1245C23.7836 28.9214 23.7981 28.6503 23.6806 28.4314L20.0261 21.6332C22.4432 19.3265 23.8201 16.0693 23.8201 12.6126C23.8201 7.04695 20.2564 2.19961 15.154 0.824766C14.8291 0.737228 14.499 0.944067 14.4161 1.28672C14.3332 1.62936 14.5291 1.97801 14.8538 2.06555C19.4188 3.29558 22.6072 7.6327 22.6072 12.6126C22.6072 18.6735 17.9438 23.4973 12.2952 23.4973C6.64255 23.4973 1.9832 18.6695 1.9832 12.6126C1.9832 7.6327 5.17134 3.29558 9.73638 2.06555C10.061 1.97801 10.257 1.62936 10.1743 1.28672C10.0913 0.944067 9.76126 0.737228 9.43641 0.824766ZM7.86923 31.0561L6.67714 27.5103C6.57573 27.2087 6.27907 27.0323 5.98217 27.0974L2.62627 27.8329L5.51847 22.4526C7.20483 23.7467 9.20159 24.535 11.278 24.7301L7.86923 31.0561ZM18.608 27.0974C18.3113 27.0323 18.0144 27.2087 17.913 27.5103L16.7211 31.0561L13.3122 24.7301C15.3888 24.535 17.3853 23.7467 19.0719 22.4526L21.9641 27.8329L18.608 27.0974Z" fill="white"/>
</svg>
