<svg width="54" height="40" viewBox="0 0 54 40" fill="none" xmlns="http://www.w3.org/2000/svg">
<g clip-path="url(#clip0)">
<path d="M1.41211 39.4076H38.8588V1.43164L1.41211 39.4076ZM31.8536 32.3499H17.9257L31.8536 18.222V32.3499Z" fill="#FF9E65"/>
<path d="M1.41204 39.408V40H39.4425V0L0 40.0031H1.41204V39.4111L1.82465 39.8388L38.2719 2.86401V38.8191H1.41204V39.4111L1.82465 39.8388L1.41204 39.408ZM31.8535 32.3503V31.7582H19.3224L31.2422 19.6699V32.3781H31.826H32.4098V16.7935L16.4861 32.9454H32.4098V32.3534H31.826L31.8535 32.3503Z" fill="#de1d25"/>
<path d="M5.41602 37.4375V39.4088H6.58355V37.4375" fill="#de1d25"/>
<path d="M7.77246 37.4375V39.4088H8.94305V37.4375" fill="#de1d25"/>
<path d="M10.1318 37.4375V39.4088H11.3024V37.4375" fill="#de1d25"/>
<path d="M12.4912 37.4375V39.4088H13.6618V37.4375" fill="#de1d25"/>
<path d="M14.8511 37.4375V39.4088H16.0217V37.4375" fill="#de1d25"/>
<path d="M17.2104 37.4375V39.4088H18.378V37.4375" fill="#de1d25"/>
<path d="M19.5669 37.4375V39.4088H20.7375V37.4375" fill="#de1d25"/>
<path d="M21.9297 37.4375V39.4088H23.0972V37.4375" fill="#de1d25"/>
<path d="M24.2861 37.4375V39.4088H25.4567V37.4375" fill="#de1d25"/>
<path d="M26.6455 37.4375V39.4088H27.8161V37.4375" fill="#de1d25"/>
<path d="M29.0049 37.4375V39.4088H30.1724V37.4375" fill="#de1d25"/>
<path d="M31.3643 37.4375V39.4088H32.5318V37.4375" fill="#de1d25"/>
<path d="M33.7241 37.4375V39.4088H34.8917V37.4375" fill="#de1d25"/>
<path d="M36.0835 37.4375V39.4088H37.251V37.4375" fill="#de1d25"/>
<path d="M52.1203 7.90039H37.1563C36.4405 7.90039 35.8604 8.48879 35.8604 9.21461V31.8911C35.8604 32.6169 36.4405 33.2053 37.1563 33.2053H52.1203C52.836 33.2053 53.4162 32.6169 53.4162 31.8911V9.21461C53.4162 8.48879 52.836 7.90039 52.1203 7.90039Z" fill="white"/>
<path d="M53.4164 31.8912H52.8327C52.8327 31.986 52.8143 32.0799 52.7785 32.1676C52.7427 32.2552 52.6902 32.3348 52.6241 32.4019C52.558 32.4689 52.4795 32.5221 52.3931 32.5584C52.3067 32.5947 52.2141 32.6134 52.1205 32.6134H37.1443C37.0508 32.6134 36.9582 32.5947 36.8718 32.5584C36.7854 32.5221 36.7069 32.4689 36.6408 32.4019C36.5746 32.3348 36.5222 32.2552 36.4864 32.1676C36.4506 32.0799 36.4322 31.986 36.4322 31.8912V9.2147C36.4322 9.11986 36.4506 9.02595 36.4864 8.93833C36.5222 8.85071 36.5746 8.77109 36.6408 8.70403C36.7069 8.63697 36.7854 8.58377 36.8718 8.54748C36.9582 8.51118 37.0508 8.4925 37.1443 8.4925H52.1205C52.3094 8.4925 52.4905 8.56859 52.6241 8.70403C52.7577 8.83947 52.8327 9.02316 52.8327 9.2147V31.8912H54.0033V9.2147C54.0049 8.96292 53.9574 8.71331 53.8635 8.48022C53.7696 8.24714 53.6312 8.03519 53.4562 7.85658C53.2812 7.67796 53.0731 7.53621 52.8439 7.43949C52.6146 7.34276 52.3688 7.29296 52.1205 7.29297H37.1443C36.6455 7.29379 36.1674 7.49531 35.815 7.8533C35.4626 8.21128 35.2646 8.69646 35.2646 9.20231V31.8788C35.2655 32.3841 35.4638 32.8685 35.8161 33.2258C36.1684 33.5831 36.646 33.7842 37.1443 33.785H52.1205C52.6188 33.7842 53.0964 33.5831 53.4488 33.2258C53.8011 32.8685 53.9994 32.3841 54.0002 31.8788H53.4164V31.8912Z" fill="#de1d25"/>
<path d="M51.4266 10.9453H37.8472V14.0046H51.4266V10.9453Z" fill="#FF9E65"/>
<path d="M51.4264 14.0048V13.4128H38.4338V11.5376H50.8426V14.0048H51.4264V13.4128V14.0048H52.0132V10.3535H37.2632V14.5999H52.0132V14.0048H51.4264Z" fill="#de1d25"/>
<path d="M41.6705 16.6445H39.1001V19.2513H41.6705V16.6445Z" fill="#FF9E65"/>
<path d="M41.6709 19.2507V18.6556H39.6843V17.236H41.0841V19.2507H41.6709V18.6556V19.2507H42.2547V16.0488H38.5137V19.8427H42.2547V19.2507H41.6709Z" fill="#de1d25"/>
<path d="M45.9249 16.6445H43.3545V19.2513H45.9249V16.6445Z" fill="#FF9E65"/>
<path d="M45.9248 19.2507V18.6556H43.9382V17.236H45.338V19.2507H45.9248V18.6556V19.2507H46.5086V16.0488H42.7676V19.8427H46.5086V19.2507H45.9248Z" fill="#de1d25"/>
<path d="M50.1798 16.6445H47.6094V19.2513H50.1798V16.6445Z" fill="#FF9E65"/>
<path d="M50.1797 19.2507V18.6556H48.1931V17.236H49.5929V19.2507H50.1797V18.6556V19.2507H50.7635V16.0488H47.0225V19.8427H50.7635V19.2507H50.1797Z" fill="#de1d25"/>
<path d="M41.6705 21.0234H39.1001V23.6302H41.6705V21.0234Z" fill="#FF9E65"/>
<path d="M41.6709 23.6304V23.0353H39.6843V21.6157H41.0841V23.6304H41.6709V23.0353V23.6304H42.2547V20.4316H38.5137V24.2224H42.2547V23.6304H41.6709Z" fill="#de1d25"/>
<path d="M45.9249 21.0234H43.3545V23.6302H45.9249V21.0234Z" fill="#FF9E65"/>
<path d="M45.9248 23.6304V23.0353H43.9382V21.6157H45.338V23.6304H45.9248V23.0353V23.6304H46.5086V20.4316H42.7676V24.2224H46.5086V23.6304H45.9248Z" fill="#de1d25"/>
<path d="M50.1798 21.0234H47.6094V23.6302H50.1798V21.0234Z" fill="#FF9E65"/>
<path d="M50.1797 23.6304V23.0353H48.1931V21.6157H49.5929V23.6304H50.1797V23.0353V23.6304H50.7635V20.4316H47.0225V24.2224H50.7635V23.6304H50.1797Z" fill="#de1d25"/>
<path d="M41.6705 25.4062H39.1001V28.013H41.6705V25.4062Z" fill="#FF9E65"/>
<path d="M41.6709 28.0132V27.4181H39.6843V25.9985H41.0841V28.0132H41.6709V27.4181V28.0132H42.2547V24.8145H38.5137V28.6052H42.2547V28.0132H41.6709Z" fill="#de1d25"/>
<path d="M45.9249 25.4062H43.3545V28.013H45.9249V25.4062Z" fill="#FF9E65"/>
<path d="M45.9248 28.0132V27.4181H43.9382V25.9985H45.338V28.0132H45.9248V27.4181V28.0132H46.5086V24.8145H42.7676V28.6052H46.5086V28.0132H45.9248Z" fill="#de1d25"/>
<path d="M50.1798 25.4062H47.6094V28.013H50.1798V25.4062Z" fill="#FF9E65"/>
<path d="M50.1797 28.0132V27.4181H48.1931V25.9985H49.5929V28.0132H50.1797V27.4181V28.0132H50.7635V24.8145H47.0225V28.6052H50.7635V28.0132H50.1797Z" fill="#de1d25"/>
<path d="M51.1912 27.5312V30.3209C51.1912 30.4157 51.1728 30.5096 51.137 30.5972C51.1012 30.6849 51.0488 30.7645 50.9827 30.8315C50.9165 30.8986 50.838 30.9518 50.7516 30.9881C50.6652 31.0244 50.5726 31.0431 50.4791 31.0431H46.2002V32.2302H50.4791C50.9784 32.2302 51.4573 32.029 51.8104 31.671C52.1635 31.3129 52.3618 30.8273 52.3618 30.3209V27.5312H51.1912Z" fill="#de1d25"/>
<path d="M5.8928 28.7494L3.48438 26.31L21.6759 7.86133L24.0843 10.3038L5.8928 28.7494Z" fill="#FF9E65"/>
<path d="M5.89279 28.7508L6.3054 28.3323L4.30958 26.3114L21.6759 8.69963L23.256 10.3052L5.48018 28.3323L5.89279 28.7508L6.3054 28.3323L5.89279 28.7508L6.3054 29.1692L24.4969 10.7237C24.6063 10.6126 24.6677 10.4621 24.6677 10.3052C24.6677 10.1483 24.6063 9.99778 24.4969 9.88677L22.0885 7.44431C22.0343 7.38892 21.9697 7.34496 21.8987 7.31497C21.8276 7.28497 21.7514 7.26953 21.6744 7.26953C21.5974 7.26953 21.5212 7.28497 21.4501 7.31497C21.379 7.34496 21.3145 7.38892 21.2602 7.44431L3.07175 25.8899C3.01714 25.9449 2.97379 26.0103 2.94422 26.0824C2.91464 26.1545 2.89941 26.2318 2.89941 26.3099C2.89941 26.3879 2.91464 26.4652 2.94422 26.5373C2.97379 26.6094 3.01714 26.6748 3.07175 26.7299L5.48018 29.1723C5.58964 29.2832 5.73805 29.3455 5.89279 29.3455C6.04752 29.3455 6.19593 29.2832 6.3054 29.1723L5.89279 28.7508Z" fill="#de1d25"/>
<path d="M24.0812 10.3051L24.4938 9.88666L22.498 7.86264L22.9473 7.407L24.5305 9.01258L23.6686 9.88356L24.0812 10.302L24.4938 9.88356L24.0812 10.302L24.4938 10.7204L25.7775 9.42793C25.8321 9.3729 25.8754 9.30747 25.905 9.23539C25.9346 9.16331 25.9498 9.08601 25.9498 9.00794C25.9498 8.92986 25.9346 8.85256 25.905 8.78048C25.8754 8.7084 25.8321 8.64297 25.7775 8.58794L23.3629 6.14548C23.3087 6.09009 23.2442 6.04614 23.1731 6.01614C23.102 5.98614 23.0258 5.9707 22.9488 5.9707C22.8718 5.9707 22.7956 5.98614 22.7245 6.01614C22.6534 6.04614 22.5889 6.09009 22.5347 6.14548L21.2602 7.4411C21.1508 7.55211 21.0894 7.70262 21.0894 7.85954C21.0894 8.01647 21.1508 8.16697 21.2602 8.27798L23.6686 10.7204C23.7228 10.7758 23.7874 10.8198 23.8584 10.8498C23.9295 10.8798 24.0057 10.8952 24.0827 10.8952C24.1597 10.8952 24.2359 10.8798 24.307 10.8498C24.3781 10.8198 24.4426 10.7758 24.4969 10.7204L24.0812 10.3051Z" fill="#de1d25"/>
<path d="M25.3586 9.01013L25.7773 9.42858L26.4711 8.72497C26.8993 8.28975 27.1397 7.70008 27.1397 7.0853C27.1397 6.47052 26.8993 5.88085 26.4711 5.44563C26.042 5.01142 25.4605 4.76758 24.8543 4.76758C24.2481 4.76758 23.6666 5.01142 23.2375 5.44563L22.5376 6.14613C22.483 6.20115 22.4396 6.26659 22.41 6.33867C22.3805 6.41075 22.3652 6.48805 22.3652 6.56612C22.3652 6.64419 22.3805 6.72149 22.41 6.79357C22.4396 6.86565 22.483 6.93109 22.5376 6.98611L24.946 9.42858C25.0003 9.48396 25.0648 9.52792 25.1358 9.55791C25.2069 9.58791 25.2831 9.60335 25.3601 9.60335C25.4371 9.60335 25.5133 9.58791 25.5844 9.55791C25.6555 9.52792 25.72 9.48396 25.7743 9.42858L25.3617 9.01013L25.7773 8.58859L23.7815 6.56457L24.0627 6.27941C24.2724 6.06723 24.5565 5.94807 24.8528 5.94807C25.149 5.94807 25.4331 6.06723 25.6428 6.27941C25.7469 6.38478 25.8295 6.50991 25.8858 6.64766C25.9421 6.78541 25.9711 6.93308 25.9711 7.0822C25.9711 7.23132 25.9421 7.37898 25.8858 7.51673C25.8295 7.65449 25.7469 7.77962 25.6428 7.88499L24.9491 8.58859L25.3617 9.00703L25.7773 8.58859L25.3586 9.01013Z" fill="#de1d25"/>
<path d="M3.48407 26.3088L3.07146 26.7272L4.85943 28.5405L2.8789 29.3649L4.02504 26.535L3.48407 26.3088L3.07146 26.7272L3.48407 26.3088L2.94309 26.0825L1.26514 30.2297C1.22032 30.3381 1.20834 30.4576 1.2307 30.5729C1.25306 30.6882 1.30876 30.7942 1.39071 30.8773C1.47266 30.9604 1.57714 31.0169 1.69085 31.0395C1.80456 31.0622 1.92236 31.0501 2.02923 31.0046L6.1156 29.2998C6.20481 29.263 6.28365 29.2044 6.34508 29.1291C6.40652 29.0539 6.44865 28.9645 6.46771 28.8687C6.48677 28.773 6.48218 28.6739 6.45434 28.5804C6.4265 28.4869 6.37628 28.4018 6.30816 28.3328L3.89668 25.8903C3.82859 25.8212 3.74471 25.7703 3.6525 25.7421C3.5603 25.7138 3.46264 25.7092 3.36822 25.7285C3.27381 25.7478 3.18559 25.7906 3.11141 25.8529C3.03723 25.9152 2.9794 25.9951 2.94309 26.0856L3.48407 26.3088Z" fill="#de1d25"/>
<path d="M2.63439 28.4072L2.09342 28.181L1.26514 30.2298C1.22032 30.3382 1.20834 30.4576 1.2307 30.5729C1.25306 30.6883 1.30876 30.7942 1.39071 30.8773C1.47266 30.9604 1.57714 31.0169 1.69085 31.0396C1.80456 31.0623 1.92236 31.0501 2.02923 31.0047L4.04644 30.1647C4.13564 30.1279 4.21448 30.0692 4.27592 29.994C4.33735 29.9188 4.37948 29.8293 4.39854 29.7335C4.41761 29.6378 4.41302 29.5388 4.38518 29.4452C4.35734 29.3517 4.30712 29.2667 4.23899 29.1976L3.05006 27.9919C2.98197 27.9228 2.89809 27.8719 2.80589 27.8436C2.71368 27.8154 2.61602 27.8107 2.52161 27.8301C2.4272 27.8494 2.33897 27.8921 2.26479 27.9544C2.19061 28.0167 2.13279 28.0967 2.09647 28.1872L2.63745 28.4134L2.22484 28.8319L2.79332 29.4084L1.583 29.9198L1.80612 30.4684L2.34709 30.6947L3.17537 28.649L2.63439 28.4227L2.22178 28.8412L2.63439 28.4072Z" fill="#de1d25"/>
<path d="M22.4645 8.6642L4.27603 27.1129C4.22165 27.168 4.17851 27.2335 4.14907 27.3056C4.11964 27.3776 4.10449 27.4549 4.10449 27.5329C4.10449 27.6109 4.11964 27.6881 4.14907 27.7602C4.17851 27.8322 4.22165 27.8977 4.27603 27.9528C4.33042 28.008 4.39498 28.0518 4.46604 28.0816C4.5371 28.1115 4.61326 28.1268 4.69017 28.1268C4.76708 28.1268 4.84324 28.1115 4.9143 28.0816C4.98536 28.0518 5.04993 28.008 5.10431 27.9528L23.2928 9.50418C23.3472 9.44903 23.3903 9.38355 23.4198 9.31149C23.4492 9.23943 23.4643 9.16219 23.4643 9.08419C23.4643 9.00619 23.4492 8.92896 23.4198 8.85689C23.3903 8.78483 23.3472 8.71935 23.2928 8.6642C23.2384 8.60905 23.1738 8.5653 23.1028 8.53545C23.0317 8.5056 22.9556 8.49023 22.8787 8.49023C22.8017 8.49023 22.7256 8.5056 22.6545 8.53545C22.5835 8.5653 22.5189 8.60905 22.4645 8.6642Z" fill="#de1d25"/>
</g>
<defs>
<clipPath id="clip0">
<rect width="54" height="40" fill="white"/>
</clipPath>
</defs>
</svg>
