<svg width="54" height="54" viewBox="0 0 54 54" fill="none" xmlns="http://www.w3.org/2000/svg">
<circle cx="27" cy="27" r="27" fill="#FF7A50"/>
<g clip-path="url(#clip0)">
<path d="M41.3819 19.7984C41.0361 18.5133 40.0228 17.5003 38.7379 17.1542C36.3902 16.5117 26.9997 16.5117 26.9997 16.5117C26.9997 16.5117 17.6094 16.5117 15.2618 17.1297C14.0016 17.4755 12.9636 18.5135 12.6177 19.7984C12 22.1459 12 27.0141 12 27.0141C12 27.0141 12 31.9069 12.6177 34.2298C12.9638 35.5148 13.9768 36.528 15.262 36.8741C17.6341 37.5166 26.9999 37.5166 26.9999 37.5166C26.9999 37.5166 36.3902 37.5166 38.7379 36.8986C40.023 36.5528 41.0361 35.5395 41.3821 34.2546C41.9999 31.9069 41.9999 27.0389 41.9999 27.0389C41.9999 27.0389 42.0246 22.1459 41.3819 19.7984Z" fill="white"/>
<path d="M24.0098 31.5117L31.8185 27.0141L24.0098 22.5166V31.5117Z" fill="#FF7A50"/>
</g>
<defs>
<clipPath id="clip0">
<rect width="30" height="30" fill="white" transform="translate(12 12)"/>
</clipPath>
</defs>
</svg>
