<svg width="249" height="24" viewBox="0 0 249 24" fill="none" xmlns="http://www.w3.org/2000/svg">
<g filter="url(#filter0_d)">
<path d="M9.616 11.524C10.432 11.524 11.122 11.242 11.686 10.678C12.238 10.126 12.514 9.424 12.514 8.572C12.514 7.732 12.238 7.036 11.686 6.484C11.122 5.92 10.432 5.638 9.616 5.638C8.788 5.638 8.092 5.92 7.528 6.484C6.976 7.036 6.7 7.732 6.7 8.572C6.7 9.424 6.976 10.126 7.528 10.678C8.092 11.242 8.788 11.524 9.616 11.524ZM9.616 13.234C8.2 13.234 7.036 12.784 6.124 11.884C5.212 10.984 4.756 9.88 4.756 8.572C4.756 7.276 5.212 6.178 6.124 5.278C7.036 4.378 8.2 3.928 9.616 3.928C11.008 3.928 12.166 4.378 13.09 5.278C14.002 6.178 14.458 7.276 14.458 8.572C14.458 9.868 14.002 10.972 13.09 11.884C12.166 12.784 11.008 13.234 9.616 13.234ZM20.2607 13H18.3168V5.872H15.3288V4.162H23.2308V5.872H20.2607V13ZM109.188 7.726H107.316V6.322H109.188V0.399999H114.426C115.746 0.399999 116.772 0.741999 117.504 1.426C118.26 2.086 118.638 2.962 118.638 4.054C118.638 5.17 118.26 6.058 117.504 6.718C116.76 7.39 115.734 7.726 114.426 7.726H111.168V9.22H116.082V10.624H111.168V13H109.188V10.624H107.316V9.22H109.188V7.726ZM111.168 2.182V6.322H114.246C115.002 6.322 115.59 6.142 116.01 5.782C116.442 5.41 116.658 4.9 116.658 4.252C116.658 3.592 116.442 3.082 116.01 2.722C115.59 2.362 115.002 2.182 114.246 2.182H111.168ZM126.467 15.43H124.595V11.29H125.747C126.215 10.582 126.539 9.712 126.719 8.68C126.899 7.684 127.001 6.178 127.025 4.162H134.063V11.29H135.593V15.43H133.757V13H126.467V15.43ZM127.799 11.29H132.119V5.872H128.807C128.807 8.164 128.471 9.97 127.799 11.29ZM141.768 11.524C142.584 11.524 143.274 11.242 143.838 10.678C144.39 10.126 144.666 9.424 144.666 8.572C144.666 7.732 144.39 7.036 143.838 6.484C143.274 5.92 142.584 5.638 141.768 5.638C140.94 5.638 140.244 5.92 139.68 6.484C139.128 7.036 138.852 7.732 138.852 8.572C138.852 9.424 139.128 10.126 139.68 10.678C140.244 11.242 140.94 11.524 141.768 11.524ZM141.768 13.234C140.352 13.234 139.188 12.784 138.276 11.884C137.364 10.984 136.908 9.88 136.908 8.572C136.908 7.276 137.364 6.178 138.276 5.278C139.188 4.378 140.352 3.928 141.768 3.928C143.16 3.928 144.318 4.378 145.242 5.278C146.154 6.178 146.61 7.276 146.61 8.572C146.61 9.868 146.154 10.972 145.242 11.884C144.318 12.784 143.16 13.234 141.768 13.234ZM234.224 8.014H232.244V6.16H234.224V0.399999H239.642C240.974 0.399999 242.042 0.753999 242.846 1.462C243.638 2.158 244.034 3.07 244.034 4.198C244.034 5.338 243.638 6.256 242.846 6.952C242.042 7.66 240.974 8.014 239.642 8.014H236.798V9.202H241.37V11.056H236.798V13H234.224V11.056H232.244V9.202H234.224V8.014ZM236.798 2.668V6.16H239.3C239.96 6.16 240.476 6.01 240.848 5.71C241.232 5.398 241.424 4.966 241.424 4.414C241.424 3.85 241.232 3.418 240.848 3.118C240.476 2.818 239.96 2.668 239.3 2.668H236.798Z" fill="black"/>
<path d="M32.0543 13.234C30.5663 13.234 29.3123 12.916 28.2923 12.28V10.354C29.3243 11.098 30.5423 11.47 31.9463 11.47C32.7743 11.47 33.4883 11.242 34.0883 10.786C34.6883 10.318 34.9883 9.694 34.9883 8.914C34.9883 8.182 34.7243 7.594 34.1963 7.15C33.6683 6.694 32.9603 6.466 32.0723 6.466C31.4963 6.466 30.9623 6.562 30.4703 6.754V5.404L33.8543 2.128H28.7603V0.399999H36.4823V1.894L33.2603 4.99C34.2683 5.098 35.1443 5.506 35.8883 6.214C36.6203 6.91 36.9863 7.81 36.9863 8.914C36.9863 10.21 36.5123 11.254 35.5643 12.046C34.6283 12.838 33.4583 13.234 32.0543 13.234ZM47.3942 13H38.6282V11.56L42.5882 7.852C43.4282 7.072 44.0462 6.4 44.4422 5.836C44.8022 5.296 44.9822 4.72 44.9822 4.108C44.9822 3.472 44.7482 2.962 44.2802 2.578C43.8242 2.182 43.2242 1.984 42.4802 1.984C41.2322 1.984 40.0562 2.506 38.9522 3.55V1.48C39.9842 0.603999 41.2262 0.165999 42.6782 0.165999C43.8662 0.165999 44.8742 0.507999 45.7022 1.192C46.5422 1.876 46.9622 2.77 46.9622 3.874C46.9622 4.726 46.7522 5.5 46.3322 6.196C45.8882 6.904 45.1802 7.72 44.2082 8.644L41.4902 11.236H47.3942V13ZM56.9629 13H55.0189V9.706H48.4849V8.194L55.0189 0.399999H56.9629V8.014H58.9249V9.706H56.9629V13ZM55.0189 2.938L50.7349 8.014H55.0189V2.938ZM70.4536 13.234C68.8576 13.234 67.5736 12.604 66.6016 11.344C65.6416 10.06 65.1616 8.512 65.1616 6.7C65.1616 4.9 65.6416 3.358 66.6016 2.074C67.5736 0.801999 68.8576 0.165999 70.4536 0.165999C72.0736 0.165999 73.3576 0.801999 74.3056 2.074C75.2776 3.346 75.7636 4.888 75.7636 6.7C75.7636 8.524 75.2776 10.072 74.3056 11.344C73.3576 12.604 72.0736 13.234 70.4536 13.234ZM70.4536 11.38C71.4496 11.38 72.2536 10.93 72.8656 10.03C73.4776 9.13 73.7836 8.02 73.7836 6.7C73.7836 5.38 73.4776 4.27 72.8656 3.37C72.2536 2.47 71.4496 2.02 70.4536 2.02C69.4696 2.02 68.6716 2.476 68.0596 3.388C67.4476 4.288 67.1416 5.392 67.1416 6.7C67.1416 7.996 67.4476 9.106 68.0596 10.03C68.6716 10.93 69.4696 11.38 70.4536 11.38ZM83.1626 13.234C81.5666 13.234 80.2826 12.604 79.3106 11.344C78.3506 10.06 77.8706 8.512 77.8706 6.7C77.8706 4.9 78.3506 3.358 79.3106 2.074C80.2826 0.801999 81.5666 0.165999 83.1626 0.165999C84.7826 0.165999 86.0666 0.801999 87.0146 2.074C87.9866 3.346 88.4726 4.888 88.4726 6.7C88.4726 8.524 87.9866 10.072 87.0146 11.344C86.0666 12.604 84.7826 13.234 83.1626 13.234ZM83.1626 11.38C84.1586 11.38 84.9626 10.93 85.5746 10.03C86.1866 9.13 86.4926 8.02 86.4926 6.7C86.4926 5.38 86.1866 4.27 85.5746 3.37C84.9626 2.47 84.1586 2.02 83.1626 2.02C82.1786 2.02 81.3806 2.476 80.7686 3.388C80.1566 4.288 79.8506 5.392 79.8506 6.7C79.8506 7.996 80.1566 9.106 80.7686 10.03C81.3806 10.93 82.1786 11.38 83.1626 11.38ZM95.8716 13.234C94.2756 13.234 92.9916 12.604 92.0196 11.344C91.0596 10.06 90.5796 8.512 90.5796 6.7C90.5796 4.9 91.0596 3.358 92.0196 2.074C92.9916 0.801999 94.2756 0.165999 95.8716 0.165999C97.4916 0.165999 98.7756 0.801999 99.7236 2.074C100.696 3.346 101.182 4.888 101.182 6.7C101.182 8.524 100.696 10.072 99.7236 11.344C98.7756 12.604 97.4916 13.234 95.8716 13.234ZM95.8716 11.38C96.8676 11.38 97.6716 10.93 98.2836 10.03C98.8956 9.13 99.2016 8.02 99.2016 6.7C99.2016 5.38 98.8956 4.27 98.2836 3.37C97.6716 2.47 96.8676 2.02 95.8716 2.02C94.8876 2.02 94.0896 2.476 93.4776 3.388C92.8656 4.288 92.5596 5.392 92.5596 6.7C92.5596 7.996 92.8656 9.106 93.4776 10.03C94.0896 10.93 94.8876 11.38 95.8716 11.38ZM156.525 13.234C155.037 13.234 153.783 12.916 152.763 12.28V10.354C153.795 11.098 155.013 11.47 156.417 11.47C157.245 11.47 157.959 11.242 158.559 10.786C159.159 10.318 159.459 9.694 159.459 8.914C159.459 8.182 159.195 7.594 158.667 7.15C158.139 6.694 157.431 6.466 156.543 6.466C155.967 6.466 155.433 6.562 154.941 6.754V5.404L158.325 2.128H153.231V0.399999H160.953V1.894L157.731 4.99C158.739 5.098 159.615 5.506 160.359 6.214C161.091 6.91 161.457 7.81 161.457 8.914C161.457 10.21 160.983 11.254 160.035 12.046C159.099 12.838 157.929 13.234 156.525 13.234ZM170.587 6.304C171.355 6.556 171.961 6.964 172.405 7.528C172.861 8.092 173.089 8.746 173.089 9.49C173.089 10.654 172.615 11.566 171.667 12.226C170.719 12.898 169.555 13.234 168.175 13.234C166.795 13.234 165.625 12.898 164.665 12.226C163.717 11.566 163.243 10.654 163.243 9.49C163.243 8.746 163.471 8.092 163.927 7.528C164.383 6.964 164.995 6.556 165.763 6.304C165.175 6.052 164.707 5.686 164.359 5.206C164.023 4.726 163.855 4.18 163.855 3.568C163.855 2.572 164.263 1.756 165.079 1.12C165.895 0.483999 166.927 0.165999 168.175 0.165999C169.411 0.165999 170.437 0.483999 171.253 1.12C172.069 1.756 172.477 2.572 172.477 3.568C172.477 4.18 172.309 4.726 171.973 5.206C171.637 5.686 171.175 6.052 170.587 6.304ZM166.429 5.116C166.897 5.476 167.479 5.656 168.175 5.656C168.871 5.656 169.447 5.476 169.903 5.116C170.359 4.756 170.587 4.294 170.587 3.73C170.587 3.166 170.359 2.704 169.903 2.344C169.447 1.984 168.871 1.804 168.175 1.804C167.479 1.804 166.897 1.984 166.429 2.344C165.973 2.704 165.745 3.166 165.745 3.73C165.745 4.294 165.973 4.756 166.429 5.116ZM170.227 10.93C170.779 10.522 171.055 10 171.055 9.364C171.055 8.728 170.779 8.206 170.227 7.798C169.699 7.39 169.015 7.186 168.175 7.186C167.347 7.186 166.657 7.39 166.105 7.798C165.553 8.206 165.277 8.728 165.277 9.364C165.277 10 165.553 10.522 166.105 10.93C166.669 11.35 167.359 11.56 168.175 11.56C168.979 11.56 169.663 11.35 170.227 10.93ZM182.153 6.304C182.921 6.556 183.527 6.964 183.971 7.528C184.427 8.092 184.655 8.746 184.655 9.49C184.655 10.654 184.181 11.566 183.233 12.226C182.285 12.898 181.121 13.234 179.741 13.234C178.361 13.234 177.191 12.898 176.231 12.226C175.283 11.566 174.809 10.654 174.809 9.49C174.809 8.746 175.037 8.092 175.493 7.528C175.949 6.964 176.561 6.556 177.329 6.304C176.741 6.052 176.273 5.686 175.925 5.206C175.589 4.726 175.421 4.18 175.421 3.568C175.421 2.572 175.829 1.756 176.645 1.12C177.461 0.483999 178.493 0.165999 179.741 0.165999C180.977 0.165999 182.003 0.483999 182.819 1.12C183.635 1.756 184.043 2.572 184.043 3.568C184.043 4.18 183.875 4.726 183.539 5.206C183.203 5.686 182.741 6.052 182.153 6.304ZM177.995 5.116C178.463 5.476 179.045 5.656 179.741 5.656C180.437 5.656 181.013 5.476 181.469 5.116C181.925 4.756 182.153 4.294 182.153 3.73C182.153 3.166 181.925 2.704 181.469 2.344C181.013 1.984 180.437 1.804 179.741 1.804C179.045 1.804 178.463 1.984 177.995 2.344C177.539 2.704 177.311 3.166 177.311 3.73C177.311 4.294 177.539 4.756 177.995 5.116ZM181.793 10.93C182.345 10.522 182.621 10 182.621 9.364C182.621 8.728 182.345 8.206 181.793 7.798C181.265 7.39 180.581 7.186 179.741 7.186C178.913 7.186 178.223 7.39 177.671 7.798C177.119 8.206 176.843 8.728 176.843 9.364C176.843 10 177.119 10.522 177.671 10.93C178.235 11.35 178.925 11.56 179.741 11.56C180.545 11.56 181.229 11.35 181.793 10.93ZM198.396 6.304C199.164 6.556 199.77 6.964 200.214 7.528C200.67 8.092 200.898 8.746 200.898 9.49C200.898 10.654 200.424 11.566 199.476 12.226C198.528 12.898 197.364 13.234 195.984 13.234C194.604 13.234 193.434 12.898 192.474 12.226C191.526 11.566 191.052 10.654 191.052 9.49C191.052 8.746 191.28 8.092 191.736 7.528C192.192 6.964 192.804 6.556 193.572 6.304C192.984 6.052 192.516 5.686 192.168 5.206C191.832 4.726 191.664 4.18 191.664 3.568C191.664 2.572 192.072 1.756 192.888 1.12C193.704 0.483999 194.736 0.165999 195.984 0.165999C197.22 0.165999 198.246 0.483999 199.062 1.12C199.878 1.756 200.286 2.572 200.286 3.568C200.286 4.18 200.118 4.726 199.782 5.206C199.446 5.686 198.984 6.052 198.396 6.304ZM194.238 5.116C194.706 5.476 195.288 5.656 195.984 5.656C196.68 5.656 197.256 5.476 197.712 5.116C198.168 4.756 198.396 4.294 198.396 3.73C198.396 3.166 198.168 2.704 197.712 2.344C197.256 1.984 196.68 1.804 195.984 1.804C195.288 1.804 194.706 1.984 194.238 2.344C193.782 2.704 193.554 3.166 193.554 3.73C193.554 4.294 193.782 4.756 194.238 5.116ZM198.036 10.93C198.588 10.522 198.864 10 198.864 9.364C198.864 8.728 198.588 8.206 198.036 7.798C197.508 7.39 196.824 7.186 195.984 7.186C195.156 7.186 194.466 7.39 193.914 7.798C193.362 8.206 193.086 8.728 193.086 9.364C193.086 10 193.362 10.522 193.914 10.93C194.478 11.35 195.168 11.56 195.984 11.56C196.788 11.56 197.472 11.35 198.036 10.93ZM208.108 13.234C206.512 13.234 205.228 12.604 204.256 11.344C203.296 10.06 202.816 8.512 202.816 6.7C202.816 4.9 203.296 3.358 204.256 2.074C205.228 0.801999 206.512 0.165999 208.108 0.165999C209.728 0.165999 211.012 0.801999 211.96 2.074C212.932 3.346 213.418 4.888 213.418 6.7C213.418 8.524 212.932 10.072 211.96 11.344C211.012 12.604 209.728 13.234 208.108 13.234ZM208.108 11.38C209.104 11.38 209.908 10.93 210.52 10.03C211.132 9.13 211.438 8.02 211.438 6.7C211.438 5.38 211.132 4.27 210.52 3.37C209.908 2.47 209.104 2.02 208.108 2.02C207.124 2.02 206.326 2.476 205.714 3.388C205.102 4.288 204.796 5.392 204.796 6.7C204.796 7.996 205.102 9.106 205.714 10.03C206.326 10.93 207.124 11.38 208.108 11.38ZM220.817 13.234C219.221 13.234 217.937 12.604 216.965 11.344C216.005 10.06 215.525 8.512 215.525 6.7C215.525 4.9 216.005 3.358 216.965 2.074C217.937 0.801999 219.221 0.165999 220.817 0.165999C222.437 0.165999 223.721 0.801999 224.669 2.074C225.641 3.346 226.127 4.888 226.127 6.7C226.127 8.524 225.641 10.072 224.669 11.344C223.721 12.604 222.437 13.234 220.817 13.234ZM220.817 11.38C221.813 11.38 222.617 10.93 223.229 10.03C223.841 9.13 224.147 8.02 224.147 6.7C224.147 5.38 223.841 4.27 223.229 3.37C222.617 2.47 221.813 2.02 220.817 2.02C219.833 2.02 219.035 2.476 218.423 3.388C217.811 4.288 217.505 5.392 217.505 6.7C217.505 7.996 217.811 9.106 218.423 10.03C219.035 10.93 219.833 11.38 220.817 11.38Z" fill="#EC681B"/>
</g>
<defs>
<filter id="filter0_d" x="0.755859" y="0.166016" width="247.278" height="23.264" filterUnits="userSpaceOnUse" color-interpolation-filters="sRGB">
<feFlood flood-opacity="0" result="BackgroundImageFix"/>
<feColorMatrix in="SourceAlpha" type="matrix" values="0 0 0 0 0 0 0 0 0 0 0 0 0 0 0 0 0 0 127 0" result="hardAlpha"/>
<feOffset dy="4"/>
<feGaussianBlur stdDeviation="2"/>
<feComposite in2="hardAlpha" operator="out"/>
<feColorMatrix type="matrix" values="0 0 0 0 0 0 0 0 0 0 0 0 0 0 0 0 0 0 0.25 0"/>
<feBlend mode="normal" in2="BackgroundImageFix" result="effect1_dropShadow"/>
<feBlend mode="normal" in="SourceGraphic" in2="effect1_dropShadow" result="shape"/>
</filter>
</defs>
</svg>
